<svg width="200" height="200" viewBox="0 0 200 200" fill="none" xmlns="http://www.w3.org/2000/svg">
<path d="M0 20C0 8.9543 8.95431 0 20 0H100V100H0V20Z" fill="#D3D3D3"/>
<path d="M100 0H180C191.046 0 200 8.95431 200 20V100H100V0Z" fill="#D3D3D3"/>
<path d="M20 200C8.95431 200 0 191.046 0 180L0 100L200 100V180C200 191.046 191.046 200 180 200H20Z" fill="#FF1E56"/>
<path d="M124.844 143.305H75.9766V133.871H124.844V143.305ZM124.844 167.621H75.9766V158.246H124.844V167.621Z" fill="white"/>
<path d="M173.633 64.9727H125.977V50.2266H173.633V64.9727Z" fill="black"/>
<path d="M55.2148 45.2383H79.0039V55.4922H55.2148V82.4453H44.3164V55.4922H20.5273V45.2383H44.3164V20.3359H55.2148V45.2383Z" fill="black"/>
</svg>
